<!-- Andy Horvath - https://thenounproject.com/browse/collection-icon/festival-glyph-collection-168993/?p=1 -->
<svg width="20" height="20" fill="none" xmlns="http://www.w3.org/2000/svg"><g clip-path="url(#a)" fill="#000"><path d="M13.005 9.952v.027h-4.7v-.027a1.955 1.955 0 0 0-.618-1.384c.204-.173.351-.404.421-.663l.354-2.89H11.4l.353 2.89c.034.316.272.493.99 1.33.17.2.262.454.261.717ZM7.625 9.952v.027h-6.15v-.027c0-.263.094-.517.264-.717.776-.915.95-1.027.99-1.33l.35-2.89H6.02l.35 2.89c.041.293.14.31.99 1.33.17.2.264.454.265.717ZM5.723 2.583c-.036-.298.263-.47.217-.772L5.771.685A.217.217 0 0 0 5.557.5H3.543a.217.217 0 0 0-.215.185L3.159 1.81c-.045.303.253.476.217.772l-.213 1.752h2.774l-.214-1.752ZM11.104 2.583c-.036-.298.263-.47.217-.772L11.152.685A.217.217 0 0 0 10.938.5H8.924a.217.217 0 0 0-.215.185L8.54 1.81c-.045.303.253.476.217.772l-.213 1.752h2.774l-.214-1.752ZM16.485 2.583c-.036-.298.262-.47.217-.772L16.533.685A.217.217 0 0 0 16.318.5h-2.013a.217.217 0 0 0-.215.185l-.17 1.126c-.044.303.254.476.218.772l-.213 1.752h2.773l-.213-1.752ZM18.387 9.952v.027h-4.703v-.027a1.93 1.93 0 0 0-.618-1.384c.202-.175.35-.405.425-.663l.35-2.89h2.941l.35 2.89c.041.303.214.415.99 1.33.17.2.264.454.265.717ZM18.771 10.66H1.09a.341.341 0 0 0-.34.34v3.74h18.361V11a.341.341 0 0 0-.34-.34Zm-16.66 2.38a.34.34 0 1 1 0-.681.34.34 0 0 1 0 .68Zm15.64 0a.34.34 0 1 1 0-.681.34.34 0 0 1 0 .68ZM.75 15.42v3.74a.341.341 0 0 0 .34.34h17.681a.341.341 0 0 0 .34-.34v-3.74H.75Zm1.36 2.38a.34.34 0 1 1 0-.68.34.34 0 0 1 0 .68Zm15.641 0a.34.34 0 1 1 0-.68.34.34 0 0 1 0 .68Z"/></g><defs><clipPath id="a"><path fill="#fff" d="M0 0h20v20H0z"/></clipPath></defs></svg>
