<!-- Andy Horvath - https://thenounproject.com/browse/collection-icon/festival-glyph-collection-168993/?p=1 -->
<svg width="20" height="20" fill="none" xmlns="http://www.w3.org/2000/svg"><path d="M12.678 17.785c.004.52.014.966.035 1.277a.402.402 0 0 1-.397.438H7.691a.404.404 0 0 1-.397-.438c.021-.304.035-.75.035-1.264 1.891-.013 4.19-.02 5.35-.013ZM13.766 4.027l-.894-.003a6.39 6.39 0 0 0 .059 1.035c.09.867.186 1.76-.325 2.333a1.519 1.519 0 0 1-2.147-.01c-.528-.587-.431-1.484-.335-2.357.046-.333.066-.669.06-1.005-1.778 0-3.924.007-3.946.007-.79 4.943.615 6.813.908 9.426.117 1.056.176 2.468.183 3.659 1.64-.014 4.076-.025 5.353-.014.01-1.191.062-2.592.18-3.645.32-2.847 1.687-4.545.904-9.426Zm-6.09 7.691c-.27-1.036-.958-2.564-.835-5.659a.345.345 0 0 1 .69.027c-.119 2.985.549 4.449.813 5.457a.345.345 0 0 1-.668.175Zm.329 1.845a17.168 17.168 0 0 0-.101-.747.345.345 0 0 1 .681-.108c.037.233.073.49.106.777a.345.345 0 0 1-.686.079Z" fill="#000"/><path d="M13.52 3.337c-.23 0-.541-.003-.859-.003a.405.405 0 0 0-.38.217.02.02 0 0 0-.003.014c-.424.977.714 3.562-.707 3.576-1.56.013-.363-2.592-.79-3.576 0-.005-.002-.01-.004-.014a.423.423 0 0 0-.383-.22c-1.484 0-3.034.003-3.907.006a1.25 1.25 0 0 1 1.2-1.501c.166.014.327.057.477.127a.2.2 0 0 0 .273-.145 1.62 1.62 0 0 1 3.179-.017.198.198 0 0 0 .182.154.2.2 0 0 0 .083-.012c.14-.059.288-.095.438-.107a1.256 1.256 0 0 1 1.202 1.501Z" fill="#000"/></svg>
