<!-- Andy Horvath - https://thenounproject.com/browse/collection-icon/festival-glyph-collection-168993/?p=1 -->
<svg width="20" height="20" fill="none" xmlns="http://www.w3.org/2000/svg"><path d="M9.529 1.523 9.527.842a.34.34 0 0 1 .68-.002l.003.68a.34.34 0 0 1-.681.003ZM10.745 1.618l.399-.553a.34.34 0 0 1 .552.399l-.398.552a.34.34 0 0 1-.553-.398ZM8.422 2.071l-.403-.55a.34.34 0 0 1 .55-.402l.402.55a.34.34 0 0 1-.55.402ZM5.11 15.774c.452.13 1.016-.408 1.235-1.172.221-.77.011-1.521-.426-1.647-.438-.126-1.014.4-1.235 1.171-.219.764-.024 1.519.426 1.648ZM9.092 5.218c.038-.232.3-.297.33-.534l.117-.885a.17.17 0 0 0-.122-.186L7.9 3.178a.17.17 0 0 0-.202.093l-.37.812c-.1.218.088.413-.003.629l-.63 1.487 2.143.614.254-1.595ZM8.933 11.18a.871.871 0 0 0-.044-.6l-.42-.926a.504.504 0 0 1-.038-.287l.3-1.876-2.303-.66-.741 1.75a.503.503 0 0 1-.185.222l-.846.564a.871.871 0 0 0-.355.485l-.096.332 4.633 1.328.095-.332ZM2.02 17.807a.503.503 0 0 0 .345.623l3.664 1.05a.504.504 0 0 0 .623-.345l.172-.6-4.633-1.328-.171.6Z" fill="#000"/><path d="m2.38 16.552 4.632 1.329 1.638-5.714-4.632-1.328-1.639 5.713ZM6.105 12.3c.857.246 1.214 1.376.894 2.49-.332 1.157-1.244 1.877-2.077 1.639-.833-.24-1.226-1.333-.894-2.49.322-1.122 1.226-1.883 2.077-1.639ZM15.415 9.852a.871.871 0 0 0-.354-.485l-.847-.564a.504.504 0 0 1-.185-.222l-.74-1.75-2.303.66.299 1.876a.503.503 0 0 1-.039.287l-.42.927a.87.87 0 0 0-.043.6l.095.331 4.633-1.328-.096-.332ZM12.391 4.712c-.092-.218.096-.412-.003-.629l-.37-.812a.17.17 0 0 0-.202-.093l-1.517.435a.17.17 0 0 0-.122.186l.116.885c.032.238.294.304.33.534l.255 1.595L13.02 6.2l-.63-1.487ZM14.606 15.774c.45-.13.645-.884.426-1.648-.222-.771-.797-1.297-1.235-1.17-.438.125-.648.875-.426 1.646.22.764.782 1.302 1.235 1.172ZM13.064 19.136a.505.505 0 0 0 .623.345l3.664-1.051a.502.502 0 0 0 .346-.623l-.172-.6-4.633 1.329.172.6Z" fill="#000"/><path d="m12.704 17.88 4.633-1.328-1.639-5.713-4.632 1.328 1.638 5.714Zm.906-5.58c.859-.247 1.758.529 2.077 1.638.332 1.158-.06 2.252-.894 2.49-.833.24-1.745-.48-2.077-1.638-.32-1.115.037-2.245.894-2.49Z" fill="#000"/></svg>
